<?xml version="1.0" standalone="no"?>
<!DOCTYPE svg PUBLIC "-//W3C//DTD SVG 20010904//EN"
 "http://www.w3.org/TR/2001/REC-SVG-20010904/DTD/svg10.dtd">
<svg version="1.0" xmlns="http://www.w3.org/2000/svg"
 width="200.000000pt" height="200.000000pt" viewBox="0 0 200.000000 200.000000"
 preserveAspectRatio="xMidYMid meet">

<g transform="translate(0.000000,200.000000) scale(0.100000,-0.100000)">
<path d="M976 1668 c-9 -13 -13 -31 -10 -45 10 -37 -29 -73 -71 -66 -28 4 -36
1 -50 -20 -10 -16 -14 -34 -10 -47 10 -31 -31 -73 -63 -65 -32 8 -72 -19 -72
-49 0 -28 29 -56 58 -56 28 0 56 42 47 70 -11 34 28 70 69 63 42 -7 71 24 63
65 -9 45 25 72 85 68 57 -3 83 -26 80 -71 -3 -41 26 -70 64 -62 41 7 70 -27
69 -80 -1 -55 -26 -83 -75 -83 -45 0 -64 -19 -58 -60 10 -65 -93 -101 -145
-52 -51 48 -12 154 53 144 38 -5 60 12 60 49 0 34 -35 61 -67 53 -24 -7 -45
-47 -36 -69 9 -25 -35 -65 -73 -65 -55 0 -83 -49 -48 -84 8 -9 30 -16 48 -16
38 0 82 -40 73 -65 -4 -8 -2 -26 4 -39 25 -54 99 -33 99 27 0 42 35 77 77 77
38 0 68 31 59 63 -8 32 35 73 71 69 31 -4 63 23 63 54 0 30 -40 57 -72 49 -32
-8 -73 34 -63 65 4 13 0 31 -10 47 -14 21 -22 24 -50 20 -43 -7 -81 29 -77 74
2 17 -2 37 -8 45 -19 22 -66 18 -84 -8z m72 0 c34 -34 -6 -90 -48 -68 -23 12
-28 65 -7 73 22 9 43 7 55 -5z m-133 -131 c13 -10 16 -21 11 -40 -8 -34 -41
-44 -67 -21 -23 21 -24 37 -3 58 19 20 35 20 59 3z m271 -8 c20 -22 13 -43
-19 -63 -36 -23 -75 36 -47 70 17 20 44 17 66 -7z m-405 -128 c21 -16 22 -22
11 -45 -19 -42 -82 -30 -82 15 0 18 25 49 40 49 4 0 18 -8 31 -19z m260 9 c23
-13 25 -52 4 -70 -8 -7 -25 -10 -40 -6 -20 5 -25 13 -25 36 0 17 7 33 18 39
21 13 20 13 43 1z m273 -6 c19 -18 20 -28 6 -55 -16 -28 -58 -25 -72 6 -9 21
-8 28 7 45 22 24 38 25 59 4z m-390 -146 c15 -25 -3 -52 -37 -56 -34 -4 -58
38 -37 63 17 20 59 16 74 -7z m266 2 c8 -14 8 -26 0 -40 -19 -35 -80 -20 -80
20 0 40 61 55 80 20z m-142 -122 c34 -34 -6 -90 -48 -68 -23 12 -28 65 -7 73
22 9 43 7 55 -5z"/>
<path d="M210 888 c0 -26 3 -28 45 -28 52 0 49 9 45 -157 l-2 -93 36 0 36 0 0
125 0 125 45 0 c42 0 45 2 45 28 l0 27 -125 0 -125 0 0 -27z"/>
<path d="M505 765 l0 -150 100 3 c99 3 115 9 115 42 0 13 -13 15 -75 12 l-75
-4 0 42 0 41 58 -2 c52 -3 57 -1 60 19 3 21 0 22 -57 22 l-61 0 0 35 c0 42 25
52 94 37 41 -8 45 -8 50 12 12 43 10 44 -101 42 l-108 -1 0 -150z"/>
<path d="M765 909 c-4 -6 2 -20 12 -32 11 -12 35 -44 52 -70 36 -54 40 -42
-36 -133 -24 -28 -43 -54 -43 -58 0 -3 11 -6 24 -6 19 0 34 13 61 55 21 30 40
55 45 55 4 0 24 -25 44 -56 35 -52 40 -56 68 -50 17 3 35 6 41 6 6 0 2 10 -9
23 -36 39 -94 127 -94 140 0 6 23 39 52 72 l51 60 -29 3 c-15 2 -30 -1 -32 -6
-6 -19 -62 -92 -70 -92 -4 0 -21 23 -37 50 -25 44 -33 50 -62 50 -17 0 -35 -5
-38 -11z"/>
<path d="M1067 912 c-3 -4 17 -37 44 -74 27 -37 49 -72 49 -77 0 -5 -25 -40
-55 -77 -31 -37 -53 -69 -51 -72 15 -15 57 14 90 63 21 30 39 55 41 55 1 0 19
-27 40 -61 35 -57 39 -61 67 -55 17 3 34 6 39 6 5 0 -16 34 -46 76 -30 43 -55
81 -55 85 0 4 23 35 50 68 28 33 50 63 50 66 0 3 -11 5 -25 5 -18 0 -32 -12
-57 -50 -18 -27 -36 -50 -40 -50 -4 0 -23 22 -40 50 -28 42 -38 50 -65 50 -17
0 -34 -3 -36 -8z"/>
<path d="M1384 768 l1 -153 33 -3 32 -3 0 155 0 156 -34 0 -33 0 1 -152z"/>
<path d="M1585 848 c-16 -40 -41 -107 -57 -148 -33 -87 -33 -90 -12 -90 9 0
23 17 32 40 l17 40 65 -2 c63 -3 64 -4 74 -36 9 -33 40 -50 71 -38 13 5 14 10
4 28 -7 12 -33 79 -59 148 -45 120 -49 125 -78 128 -29 3 -31 0 -57 -70z m68
-59 c10 -28 16 -53 14 -56 -3 -2 -23 -3 -45 -1 l-40 3 20 53 c11 28 23 52 26
52 4 0 15 -23 25 -51z"/>
</g>
</svg>
